HIERARCHY
ROOT pelvis
{
  OFFSET 0 100 0
  CHANNELS 6 Xposition Yposition Zposition Zrotation Xrotation Yrotation
  JOINT pelvis_right_femur
  {
    OFFSET -10.78128 -3.44521 -0.5502486
    CHANNELS 3 Zrotation Xrotation Yrotation
    JOINT right_femur_tibia
    {
      OFFSET -0.8047443 -44.0398 -0.1307829
      CHANNELS 3 Zrotation Xrotation Yrotation
      JOINT right_tibia_foot
      {
        OFFSET 3.006224 -47.83518 -5
        CHANNELS 3 Zrotation Xrotation Yrotation
        End Site
        {
          OFFSET 0 -5 15
        }
      }
    }
  }
  JOINT pelvis_left_femur
  {
    OFFSET 10.78128 -3.44521 -0.5502486
    CHANNELS 3 Zrotation Xrotation Yrotation
    JOINT left_femur_tibia
    {
      OFFSET 0.8047443 -44.0398 -0.1307829
      CHANNELS 3 Zrotation Xrotation Yrotation
      JOINT left_tibia_foot
      {
        OFFSET -4.370144 -48.10324 -4.275266
        CHANNELS 3 Zrotation Xrotation Yrotation
        End Site
        {
          OFFSET 0 -5 15
        }
      }
    }
  }
  JOINT pelvis_spine1
  {
    OFFSET 0 6.468898 -3.129235
    CHANNELS 3 Zrotation Xrotation Yrotation
    JOINT spine1
    {
      OFFSET 0 23.15396 4.99043
      CHANNELS 3 Zrotation Xrotation Yrotation
      JOINT spine2
      {
        OFFSET 0 20.79997 -5.064912
        CHANNELS 3 Zrotation Xrotation Yrotation
        JOINT neck
        {
          OFFSET 0 14.38658 9.616178
          CHANNELS 3 Zrotation Xrotation Yrotation
          End Site
          {
            OFFSET 0 20 0
          }
        }
      }
      JOINT right_manubrium
      {
        OFFSET -5.722621 16.35077 3.967754
        CHANNELS 3 Zrotation Xrotation Yrotation
        JOINT right_clavicle
        {
          OFFSET -13.16364 1.694482 -4.693211
          CHANNELS 3 Zrotation Xrotation Yrotation
          JOINT right_humerus
          {
            OFFSET -28.5034 -0.3100689 -2.792744
            CHANNELS 3 Zrotation Xrotation Yrotation
            JOINT right_radius
            {
              OFFSET -25.15693 0.02248979 -1.271978
              CHANNELS 3 Zrotation Xrotation Yrotation
              End Site
              {
                OFFSET -15 0 0
              }
            }
          }
        }
      }
      JOINT left_manubrium
      {
        OFFSET 5.722621 16.35077 3.967754
        CHANNELS 3 Zrotation Xrotation Yrotation
        JOINT left_clavicle
        {
          OFFSET 13.16364 1.694482 -4.693211
          CHANNELS 3 Zrotation Xrotation Yrotation
          JOINT left_humerus
          {
            OFFSET 29.39168 -1.063119 -2.237045
            CHANNELS 3 Zrotation Xrotation Yrotation
            JOINT left_radius
            {
              OFFSET 24.59957 -0.9528479 0.9047498
              CHANNELS 3 Zrotation Xrotation Yrotation
              End Site
              {
                OFFSET 15 -0 -0
              }
            }
          }
        }
      }
    }
  }
}
MOTION
Frames: 19
Frame Time: 0.0416666666667
-72.4337 94.06444 524.8064 -10.96795 -11.19036 -42.29194 9.285839 3.70237 -11.69259 -0 6.968054 -0 -9.750361 16.39097 2.969446 1.927421 -5.799025 -0.946271 -0 35.54254 -0 5.538393 -4.286029 14.27863 4.682051 -8.633912 6.368647 -1.749705 26.19182 -7.37229 1.78099 21.28759 1.865999 -0.05884607 -20.36537 3.775124 -7.189441 -35.79697 16.31865 100.4729 -4.744159 -18.84321 -0 0 18.99575 -46.54986 23.8849 26.12761 1.551805 -33.00427 -18.36257 -90.98362 13.27054 30.45699 0 0 -33.62363 4.875628 24.44568 7.443326
-76.34014 94.08337 529.7635 -11.13939 -11.01974 -43.18198 9.285839 3.70237 -11.69259 -0 6.968054 -0 -9.750361 16.39097 2.969446 1.927421 -5.799025 -0.946271 -0 35.54254 -0 5.538393 -4.286029 14.27863 4.682051 -8.633912 6.368647 -1.749705 26.19182 -7.37229 1.78099 21.28759 1.865999 -0.05884607 -20.36537 3.775124 -7.189441 -35.79697 16.31865 100.4729 -4.744159 -18.84321 -0 0 18.99575 -46.54986 23.8849 26.12761 1.551805 -33.00427 -18.36257 -90.98362 13.27054 30.45699 0 0 -33.62363 4.875628 24.44568 7.443326
-80.3231 94.1023 534.6594 -11.308 -10.84653 -44.07098 9.285839 3.70237 -11.69259 -0 6.968054 -0 -9.750361 16.39097 2.969446 1.927421 -5.799025 -0.946271 -0 35.54254 -0 5.538393 -4.286029 14.27863 4.682051 -8.633912 6.368647 -1.749705 26.19182 -7.37229 1.78099 21.28759 1.865999 -0.05884607 -20.36537 3.775124 -7.189441 -35.79697 16.31865 100.4729 -4.744159 -18.84321 -0 0 18.99575 -46.54986 23.8849 26.12761 1.551805 -33.00427 -18.36257 -90.98362 13.27054 30.45699 0 0 -33.62363 4.875628 24.44568 7.443326
-84.38162 94.12123 539.4928 -11.47376 -10.67077 -44.95895 9.285839 3.70237 -11.69259 -0 6.968054 -0 -9.750361 16.39097 2.969446 1.927421 -5.799025 -0.946271 -0 35.54254 -0 5.538393 -4.286029 14.27863 4.682051 -8.633912 6.368647 -1.749705 26.19182 -7.37229 1.78099 21.28759 1.865999 -0.05884607 -20.36537 3.775124 -7.189441 -35.79697 16.31865 100.4729 -4.744159 -18.84321 -0 0 18.99575 -46.54986 23.8849 26.12761 1.551805 -33.00427 -18.36257 -90.98362 13.27054 30.45699 0 0 -33.62363 4.875628 24.44568 7.443326
-88.51472 94.14016 544.2627 -11.63664 -10.49251 -45.84588 9.285839 3.70237 -11.69259 -0 6.968054 -0 -9.750361 16.39097 2.969446 1.927421 -5.799025 -0.946271 -0 35.54254 -0 5.538393 -4.286029 14.27863 4.682051 -8.633912 6.368647 -1.749705 26.19182 -7.37229 1.78099 21.28759 1.865999 -0.05884607 -20.36537 3.775124 -7.189441 -35.79697 16.31865 100.4729 -4.744159 -18.84321 -0 0 18.99575 -46.54986 23.8849 26.12761 1.551805 -33.00427 -18.36257 -90.98362 13.27054 30.45699 0 0 -33.62363 4.875628 24.44568 7.443326
-92.72139 94.15909 548.9677 -11.7966 -10.3118 -46.73178 9.285839 3.70237 -11.69259 -0 6.968054 -0 -9.750361 16.39097 2.969446 1.927421 -5.799025 -0.946271 -0 35.54254 -0 5.538393 -4.286029 14.27863 4.682051 -8.633912 6.368647 -1.749705 26.19182 -7.37229 1.78099 21.28759 1.865999 -0.05884607 -20.36537 3.775124 -7.189441 -35.79697 16.31865 100.4729 -4.744159 -18.84321 -0 0 18.99575 -46.54986 23.8849 26.12761 1.551805 -33.00427 -18.36257 -90.98362 13.27054 30.45699 0 0 -33.62363 4.875628 24.44568 7.443326
-97.00063 94.17802 553.6069 -11.95361 -10.12868 -47.61666 9.285839 3.70237 -11.69259 -0 6.968054 -0 -9.750361 16.39097 2.969446 1.927421 -5.799025 -0.946271 -0 35.54254 -0 5.538393 -4.286029 14.27863 4.682051 -8.633912 6.368647 -1.749705 26.19182 -7.37229 1.78099 21.28759 1.865999 -0.05884607 -20.36537 3.775124 -7.189441 -35.79697 16.31865 100.4729 -4.744159 -18.84321 -0 0 18.99575 -46.54986 23.8849 26.12761 1.551805 -33.00427 -18.36257 -90.98362 13.27054 30.45699 0 0 -33.62363 4.875628 24.44568 7.443326
-101.3514 94.19696 558.179 -12.10764 -9.943191 -48.50053 9.285839 3.70237 -11.69259 -0 6.968054 -0 -9.750361 16.39097 2.969446 1.927421 -5.799025 -0.946271 -0 35.54254 -0 5.538393 -4.286029 14.27863 4.682051 -8.633912 6.368647 -1.749705 26.19182 -7.37229 1.78099 21.28759 1.865999 -0.05884607 -20.36537 3.775124 -7.189441 -35.79697 16.31865 100.4729 -4.744159 -18.84321 -0 0 18.99575 -46.54986 23.8849 26.12761 1.551805 -33.00427 -18.36257 -90.98362 13.27054 30.45699 0 0 -33.62363 4.875628 24.44568 7.443326
-105.7727 94.21589 562.683 -12.25866 -9.755388 -49.38338 9.285839 3.70237 -11.69259 -0 6.968054 -0 -9.750361 16.39097 2.969446 1.927421 -5.799025 -0.946271 -0 35.54254 -0 5.538393 -4.286029 14.27863 4.682051 -8.633912 6.368647 -1.749705 26.19182 -7.37229 1.78099 21.28759 1.865999 -0.05884607 -20.36537 3.775124 -7.189441 -35.79697 16.31865 100.4729 -4.744159 -18.84321 -0 0 18.99575 -46.54986 23.8849 26.12761 1.551805 -33.00427 -18.36257 -90.98362 13.27054 30.45699 0 0 -33.62363 4.875628 24.44568 7.443326
-110.2633 94.23482 567.1178 -12.40664 -9.565316 -50.26524 9.285839 3.70237 -11.69259 -0 6.968054 -0 -9.750361 16.39097 2.969446 1.927421 -5.799025 -0.946271 -0 35.54254 -0 5.538393 -4.286029 14.27863 4.682051 -8.633912 6.368647 -1.749705 26.19182 -7.37229 1.78099 21.28759 1.865999 -0.05884607 -20.36537 3.775124 -7.189441 -35.79697 16.31865 100.4729 -4.744159 -18.84321 -0 0 18.99575 -46.54986 23.8849 26.12761 1.551805 -33.00427 -18.36257 -90.98362 13.27054 30.45699 0 0 -33.62363 4.875628 24.44568 7.443326
-114.8224 94.25375 571.4823 -12.55156 -9.373023 -51.1461 9.285839 3.70237 -11.69259 -0 6.968054 -0 -9.750361 16.39097 2.969446 1.927421 -5.799025 -0.946271 -0 35.54254 -0 5.538393 -4.286029 14.27863 4.682051 -8.633912 6.368647 -1.749705 26.19182 -7.37229 1.78099 21.28759 1.865999 -0.05884607 -20.36537 3.775124 -7.189441 -35.79697 16.31865 100.4729 -4.744159 -18.84321 -0 0 18.99575 -46.54986 23.8849 26.12761 1.551805 -33.00427 -18.36257 -90.98362 13.27054 30.45699 0 0 -33.62363 4.875628 24.44568 7.443326
-119.4486 94.27268 575.7755 -12.69339 -9.178556 -52.02598 9.285839 3.70237 -11.69259 -0 6.968054 -0 -9.750361 16.39097 2.969446 1.927421 -5.799025 -0.946271 -0 35.54254 -0 5.538393 -4.286029 14.27863 4.682051 -8.633912 6.368647 -1.749705 26.19182 -7.37229 1.78099 21.28759 1.865999 -0.05884607 -20.36537 3.775124 -7.189441 -35.79697 16.31865 100.4729 -4.744159 -18.84321 -0 0 18.99575 -46.54986 23.8849 26.12761 1.551805 -33.00427 -18.36257 -90.98362 13.27054 30.45699 0 0 -33.62363 4.875628 24.44568 7.443326
-124.141 94.29161 579.9964 -12.8321 -8.981964 -52.90489 9.285839 3.70237 -11.69259 -0 6.968054 -0 -9.750361 16.39097 2.969446 1.927421 -5.799025 -0.946271 -0 35.54254 -0 5.538393 -4.286029 14.27863 4.682051 -8.633912 6.368647 -1.749705 26.19182 -7.37229 1.78099 21.28759 1.865999 -0.05884607 -20.36537 3.775124 -7.189441 -35.79697 16.31865 100.4729 -4.744159 -18.84321 -0 0 18.99575 -46.54986 23.8849 26.12761 1.551805 -33.00427 -18.36257 -90.98362 13.27054 30.45699 0 0 -33.62363 4.875628 24.44568 7.443326
-128.8983 94.31055 584.1438 -12.96767 -8.783295 -53.78285 9.285839 3.70237 -11.69259 -0 6.968054 -0 -9.750361 16.39097 2.969446 1.927421 -5.799025 -0.946271 -0 35.54254 -0 5.538393 -4.286029 14.27863 4.682051 -8.633912 6.368647 -1.749705 26.19182 -7.37229 1.78099 21.28759 1.865999 -0.05884607 -20.36537 3.775124 -7.189441 -35.79697 16.31865 100.4729 -4.744159 -18.84321 -0 0 18.99575 -46.54986 23.8849 26.12761 1.551805 -33.00427 -18.36257 -90.98362 13.27054 30.45699 0 0 -33.62363 4.875628 24.44568 7.443326
-133.7195 94.32948 588.2168 -13.10007 -8.582598 -54.65986 9.285839 3.70237 -11.69259 -0 6.968054 -0 -9.750361 16.39097 2.969446 1.927421 -5.799025 -0.946271 -0 35.54254 -0 5.538393 -4.286029 14.27863 4.682051 -8.633912 6.368647 -1.749705 26.19182 -7.37229 1.78099 21.28759 1.865999 -0.05884607 -20.36537 3.775124 -7.189441 -35.79697 16.31865 100.4729 -4.744159 -18.84321 -0 0 18.99575 -46.54986 23.8849 26.12761 1.551805 -33.00427 -18.36257 -90.98362 13.27054 30.45699 0 0 -33.62363 4.875628 24.44568 7.443326
-138.6034 94.34841 592.2145 -13.22929 -8.379922 -55.53594 9.285839 3.70237 -11.69259 -0 6.968054 -0 -9.750361 16.39097 2.969446 1.927421 -5.799025 -0.946271 -0 35.54254 -0 5.538393 -4.286029 14.27863 4.682051 -8.633912 6.368647 -1.749705 26.19182 -7.37229 1.78099 21.28759 1.865999 -0.05884607 -20.36537 3.775124 -7.189441 -35.79697 16.31865 100.4729 -4.744159 -18.84321 -0 0 18.99575 -46.54986 23.8849 26.12761 1.551805 -33.00427 -18.36257 -90.98362 13.27054 30.45699 0 0 -33.62363 4.875628 24.44568 7.443326
-143.5487 94.36734 596.1359 -13.35528 -8.175317 -56.4111 9.285839 3.70237 -11.69259 -0 6.968054 -0 -9.750361 16.39097 2.969446 1.927421 -5.799025 -0.946271 -0 35.54254 -0 5.538393 -4.286029 14.27863 4.682051 -8.633912 6.368647 -1.749705 26.19182 -7.37229 1.78099 21.28759 1.865999 -0.05884607 -20.36537 3.775124 -7.189441 -35.79697 16.31865 100.4729 -4.744159 -18.84321 -0 0 18.99575 -46.54986 23.8849 26.12761 1.551805 -33.00427 -18.36257 -90.98362 13.27054 30.45699 0 0 -33.62363 4.875628 24.44568 7.443326
-148.5544 94.38627 599.98 -13.47805 -7.968832 -57.28536 9.285839 3.70237 -11.69259 -0 6.968054 -0 -9.750361 16.39097 2.969446 1.927421 -5.799025 -0.946271 -0 35.54254 -0 5.538393 -4.286029 14.27863 4.682051 -8.633912 6.368647 -1.749705 26.19182 -7.37229 1.78099 21.28759 1.865999 -0.05884607 -20.36537 3.775124 -7.189441 -35.79697 16.31865 100.4729 -4.744159 -18.84321 -0 0 18.99575 -46.54986 23.8849 26.12761 1.551805 -33.00427 -18.36257 -90.98362 13.27054 30.45699 0 0 -33.62363 4.875628 24.44568 7.443326
-153.6192 94.4052 603.7458 -13.59756 -7.760518 -58.15873 9.285839 3.70237 -11.69259 -0 6.968054 -0 -9.750361 16.39097 2.969446 1.927421 -5.799025 -0.946271 -0 35.54254 -0 5.538393 -4.286029 14.27863 4.682051 -8.633912 6.368647 -1.749705 26.19182 -7.37229 1.78099 21.28759 1.865999 -0.05884607 -20.36537 3.775124 -7.189441 -35.79697 16.31865 100.4729 -4.744159 -18.84321 -0 0 18.99575 -46.54986 23.8849 26.12761 1.551805 -33.00427 -18.36257 -90.98362 13.27054 30.45699 0 0 -33.62363 4.875628 24.44568 7.443326
